<?xml version="1.0" encoding="UTF-8"?>
<svg xmlns="http://www.w3.org/2000/svg" xmlns:xlink="http://www.w3.org/1999/xlink" width="15pt" height="15pt" viewBox="0 0 15 15" version="1.1">
<g id="surface1">
<path style=" stroke:none;fill-rule:nonzero;fill:rgb(0%,0%,0%);fill-opacity:1;" d="M 11.867188 6.628906 L 5.589844 0.367188 C 5.359375 0.121094 5.070312 0 4.726562 0 C 4.378906 0 4.089844 0.121094 3.859375 0.367188 L 3.128906 1.085938 C 2.890625 1.324219 2.773438 1.613281 2.773438 1.953125 C 2.773438 2.289062 2.890625 2.578125 3.128906 2.828125 L 7.804688 7.496094 L 3.128906 12.175781 C 2.890625 12.410156 2.773438 12.699219 2.773438 13.039062 C 2.773438 13.375 2.890625 13.664062 3.128906 13.914062 L 3.859375 14.636719 C 4.097656 14.875 4.386719 14.992188 4.726562 14.992188 C 5.066406 14.992188 5.355469 14.875 5.589844 14.636719 L 11.867188 8.371094 C 12.105469 8.121094 12.222656 7.832031 12.222656 7.496094 C 12.222656 7.15625 12.105469 6.867188 11.867188 6.628906 Z M 11.867188 6.628906 "/>
</g>
</svg>
