<svg xmlns="http://www.w3.org/2000/svg" height="512" viewBox="0 0 1024 1024"><path d="M102.423 204.8c-33.67 0-61.44 27.73-61.44 61.44V577.3a20.48 20.48 0 0 0 .635 3.83 20.48 20.48 0 0 0 0 .635 215.45 215.45 0 0 0-22.405 46.735C6.474 665.948 1.088 709.08.023 757.76v20.48a20.48 20.48 0 0 0 0 1.925V1024h143.36v-81.92c0-17.06 4.178-25.948 9.605-31.355 5.407-5.427 14.295-9.605 31.355-9.605h655.36c17.06 0 25.948 4.178 31.355 9.605 5.427 5.407 9.605 14.295 9.605 31.355V1024h143.36V781.435a20.48 20.48 0 0 0 0-3.195v-20.48c-1.065-48.68-6.43-91.79-19.2-129.3-5.652-16.61-13.312-31.744-22.385-46.08a20.48 20.48 0 0 0 .635-5.12V266.24c0-33.7-27.77-61.44-61.44-61.44h-819.2zm0 40.96h819.2c11.55 0 20.48 8.93 20.48 20.48v269.435a216.31 216.31 0 0 0-15.995-12.145c-13.68-9.42-28.57-18.227-45.445-25.6V409.6c0-14.418-9.44-25.6-19.845-32.645-10.404-7.025-23.142-11.94-39.035-15.995-31.805-8.13-76.575-12.8-135.68-12.8s-103.875 4.67-135.68 12.8c-15.565 3.973-28.14 8.602-38.4 15.36-10.26-6.758-22.856-11.387-38.4-15.36-31.805-8.13-76.575-12.8-135.68-12.8s-103.875 4.67-135.68 12.8c-15.913 4.055-28.63 8.97-39.035 15.995s-19.845 18.227-19.845 32.645v88.33c-16.876 7.373-31.764 16.18-45.445 25.6-5.612 3.85-10.936 7.926-15.995 12.145V266.24c0-11.55 8.93-20.48 20.48-20.48zm235.52 143.36c56.934 0 99.226 4.833 125.44 11.53 13.107 3.338 22.118 7.455 26.235 10.24 1.638 1.106 1.76 1.25 1.925 1.27v38.4c-134.656.88-234.312 10.998-307.2 33.28v-71.68c.164 0 .287-.164 1.925-1.3 4.096-2.765 13.128-6.88 26.235-10.24 26.214-6.676 68.485-11.5 125.44-11.5zm348.16 0c56.934 0 99.226 4.833 125.44 11.53 13.107 3.338 22.118 7.455 26.235 10.24 1.638 1.106 1.76 1.25 1.925 1.27v71.68c-72.888-22.282-172.544-32.4-307.2-33.28v-38.4c.164 0 .287-.164 1.925-1.3 4.096-2.765 13.128-6.88 26.235-10.24 26.214-6.676 68.485-11.5 125.44-11.5zm-177.93 102.4a20.48 20.48 0 0 0 6.41 0h1.925c204.943.328 323.38 21.75 386.56 65.3 31.826 21.914 51.118 49.152 63.345 85.115 10.65 31.334 14.97 70 16.015 115.835H41.597c1.044-45.834 5.345-84.52 15.995-115.835 12.247-35.963 31.54-63.2 63.365-85.135 63.242-43.56 181.862-64.983 387.215-65.27zm-467.2 307.2h942.08v184.32h-61.44v-40.96c0-23.9-6.062-45.732-21.115-60.805-15.073-15.053-36.905-21.115-60.805-21.115h-655.36c-23.9 0-45.732 6.062-60.805 21.115-15.053 15.073-21.115 36.905-21.115 60.805v40.96h-61.44V798.72z" fill="#fff"/></svg>