<svg xmlns="http://www.w3.org/2000/svg" width="512" height="512"><path fill="#c0b283" d="M497 460.88h-22.457l-200.74-313.686 43.547-68.05c4.465-6.978 2.43-16.254-4.55-20.72s-16.252-2.43-20.72 4.55L271.094 95.77V36.12c0-8.284-6.716-15-15-15s-15 6.716-15 15v59.648l-20.986-32.795c-4.467-6.98-13.743-9.013-20.72-4.55s-9.015 13.742-4.55 20.72l43.547 68.05L37.647 460.88H15c-8.284 0-15 6.716-15 15s6.716 15 15 15h482c8.284 0 15-6.716 15-15s-6.716-15-15-15zm-133.955 0L271 317.045V460.88h-30V317.045L148.955 460.88h-35.617L234.46 271.607a25.46 25.46 0 0 1 21.539-11.788c8.763 0 16.814 4.406 21.538 11.787L398.66 460.88h-35.616z"/></svg>