<svg xmlns="http://www.w3.org/2000/svg" viewBox="0 0 512 512" fill="#c0b283"><path d="M264.18 76.9c-93.646 0-169.56 75.915-169.56 169.56s75.915 169.56 169.56 169.56 169.56-75.915 169.56-169.56S357.827 76.9 264.18 76.9zm-.001 298.22c-70.942 0-128.658-57.716-128.658-128.658s57.716-128.658 128.658-128.658 128.66 57.716 128.66 128.656-57.715 128.66-128.658 128.66zm.001-222.83c-51.926 0-94.17 42.245-94.17 94.17s42.245 94.17 94.17 94.17 94.17-42.245 94.17-94.17-42.244-94.17-94.17-94.17zm237.135 108.387V54.64c0-1.988-1.27-3.755-3.155-4.4s-3.963.007-5.166 1.6c-25.708 33.903-39.622 75.283-39.622 117.83v75.378c0 8.645 7.008 15.654 15.654 15.654h6.526c-6.433 66.443-10.684 159.37-10.684 170.25 0 17.142 10.55 31.038 23.566 31.038S512 448.095 512 430.954c0-10.882-4.25-103.824-10.685-170.267zM68.417 219.843c13.042-7.9 21.76-22.224 21.76-38.586l-6.46-105.62c-.247-4.026-3.584-7.165-7.618-7.165-4.363 0-7.84 3.655-7.622 8l4.2 84.7a8.62 8.62 0 0 1-8.62 8.62c-4.76 0-8.62-3.86-8.62-8.62l-2.1-84.674a8.25 8.25 0 0 0-16.494 0l-2.1 84.674a8.62 8.62 0 0 1-8.62 8.62c-4.76 0-8.62-3.86-8.62-8.62l4.2-84.7c.216-4.357-3.262-8-7.622-8a7.63 7.63 0 0 0-7.617 7.165L0 181.258c0 16.362 8.716 30.685 21.76 38.586a25.5 25.5 0 0 1 12.126 24.617c-7.363 66.358-12.363 174.693-12.363 186.494 0 17.142 10.55 31.038 23.566 31.038s23.566-13.897 23.566-31.038c0-11.8-5-120.136-12.363-186.494a25.51 25.51 0 0 1 12.126-24.618z"/></svg>