<svg xmlns="http://www.w3.org/2000/svg" height="512" viewBox="0 0 1560 1024"><path fill="#fff" d="M258.458 66A22.123 22.123 0 0 0 236.32 88.14v177.585h-73.882V88.14a22.123 22.123 0 1 0-44.277 0v177.585H44.277V88.14A22.123 22.123 0 1 0 0 88.14v177.585C19.42 349.27 54.402 413.03 96.774 439.362v503.29a43.54 43.54 0 0 0 87.049 0v-503.29c42.372-26.333 77.355-90.09 96.76-173.637V88.14a22.123 22.123 0 0 0-22.123-22.139zm1217.18-1.936a64.019 64.019 0 1 0-128.038 0v467.8a63.942 63.942 0 0 0 38.408 58.611v334.445c0 28.284 20.065 51.206 44.815 51.206s44.815-22.922 44.815-51.206V544.985c0-2.397-.338-4.686-.615-7 .2-2.043.615-4.025.615-6.115V64.065zm-695.423-35.92c-275.05 0-497.973 222.938-497.973 497.99 0 274.943 222.923 497.88 497.973 497.88 274.943 0 497.896-222.938 497.896-497.88 0-275.05-222.953-497.99-497.896-497.99zM780.2 963.56c-241.65 0-437.518-195.868-437.518-437.457 0-241.65 195.868-437.534 437.518-437.534 241.59 0 437.472 195.883 437.472 437.534-.015 241.59-195.898 437.457-437.472 437.457zM409.265 526.088a370.918 370.918 0 1 0 741.836 0 370.918 370.918 0 1 0-741.836 0z"/></svg>