<svg xmlns="http://www.w3.org/2000/svg" viewBox="0 0 491.667 491.667" fill="#c0b283"><path d="M193.908 83c-10 0-18.667 3.5-26 10.5s-11 15.5-11 25.5 3.667 18.5 11 25.5 16 10.5 26 10.5 18.5-3.5 25.5-10.5 10.5-15.5 10.5-25.5-3.5-18.5-10.5-25.5-15.5-10.5-25.5-10.5zM378.9 154c-.674-3.333-3.34-7.333-8-12L156.9 0l-20 29c-4.667 6.667-3.667 12.334 3 17s12.333 3.667 17-3l12-17 174 115-143 26c-4.667.667-8.667 3.167-12 7.5s-4.333 8.833-3 13.5l31 121-100 150c-3.333 5.334-4.167 11-2.5 17s5.167 10.334 10.5 13 10.833 3.334 16.5 2 10.167-4.666 13.5-10l105-159 5 22-16 119c-.666 5.334.668 10.5 4 15.5s8 8 14 9 11.5-.334 16.5-4 7.832-8.166 8.5-13.5l16-122c.666-4 .666-8.332 0-13l-36-143 93-16c4.666-1.333 8.5-4 11.5-8s4.166-8.667 3.5-14z"/></svg>