<svg xmlns="http://www.w3.org/2000/svg" height="512" viewBox="0 0 1024 1024"><path d="M509.43 306.896c8.786 0 17.44-5.427 22.02-13.78 4.625-8.468 4.267-18.413-1.002-26.644-19.118-29.853 3.122-63.186 26.67-98.484 20.222-30.3 41.118-61.66 34.495-92.653-3.823-17.995-16.215-33.354-37.802-46.95-14.29-8.945-33.87-.72-38.375 14.92-2.963 10.29 1.04 20.375 10.466 26.303 8.51 5.346 13.295 11.313 14.613 18.26 3.244 16.974-13.77 40.3-27.488 59.02-4.784 6.542-9.305 12.77-12.908 18.455-31.173 49.35-34.337 92.03-9.7 130.5 4.483 6.993 11.413 11.018 18.998 11.038zm0 0zm140.143 0c8.79 0 17.46-5.427 22.045-13.78 4.625-8.468 4.263-18.413-1.005-26.644-19.118-29.853 3.103-63.186 26.652-98.484 20.22-30.3 41.118-61.66 34.492-92.653-3.82-17.995-16.215-33.354-37.795-46.95-14.218-8.945-33.897-.72-38.402 14.94-2.946 10.29 1.065 20.358 10.473 26.286 8.53 5.346 13.295 11.313 14.614 18.26 3.244 16.974-13.778 40.3-27.468 59.038-4.784 6.544-9.33 12.777-12.937 18.46-31.173 49.35-34.33 92.038-9.69 130.518 4.51 6.965 11.43 11 19.022 11zm0 0zm-260.266 0c8.787 0 17.44-5.427 22.02-13.78 4.625-8.468 4.245-18.413-1.003-26.644-19.118-29.853 3.127-63.186 26.67-98.484 20.222-30.3 41.125-61.66 34.495-92.653-3.843-17.995-16.215-33.354-37.82-46.95-14.212-8.945-33.874-.72-38.375 14.92-2.964 10.29 1.04 20.375 10.465 26.303 8.51 5.346 13.295 11.313 14.614 18.26 3.244 16.974-13.772 40.3-27.488 59.02-4.784 6.542-9.306 12.77-12.9 18.455-31.173 49.35-34.337 92.03-9.692 130.5 4.505 6.993 11.433 11.018 19.02 11.038zm0 0zM924.855 527.88c-.062-.6-.202-1.2-.284-1.804-42.823 67.294-210.473 116.203-417.004 116.203s-374.205-48.908-417-116.203c-.16 1.205-.477 2.383-.54 3.586-45.946 10.05-66.128 31.233-64.868 67.39 1.082 30.586 40.14 57.077 91.036 72.114 31.93 79.42 91.054 112.64 167.188 155.225l-109.59 160.2c-6.542 15.237.522 32.894 15.775 39.443 3.843 1.637 7.87 2.42 11.8 2.42 11.658 0 22.73-6.805 27.612-18.195l108.753-158.273c51.933 20.12 109.31 31.276 169.834 31.276 62.203 0 121.022-11.877 174.08-33.036l109.51 160.033c4.88 11.4 15.978 18.195 27.63 18.195a30.18 30.18 0 0 0 11.81-2.42c15.257-6.55 22.303-24.206 15.775-39.443L735.84 822.227c73.355-42.122 130.455-73.586 162.046-150.38 55.642-14.42 99.786-42.224 100.946-74.78 1.342-38.496-21.58-60.002-73.978-69.19zM75.386 602.7c-.86-16.443 1.682-26.03 16.277-32.22 2.04 20.225 6.004 39.643 11.107 58.545-16.435-6.43-26.804-15.116-27.385-26.327zm873.212 0c-.698 13.312-15.172 23.004-37.154 29.667 5.822-20.82 10.11-42.347 12.17-64.77 22.245 5.987 25.983 15.837 24.983 35.102zm0 0zm-441.03 19.558c244.013 0 407.92-67.3 407.92-130.133s-163.933-130.132-407.92-130.132c-244.013 0-407.92 67.3-407.92 130.132s163.908 130.133 407.92 130.133zm5.443-225.23c175.56 0 353.303 30.953 353.303 90.094s-177.745 90.1-353.303 90.1c-175.578 0-353.303-30.95-353.303-90.1s177.728-90.094 353.303-90.094zm0 0zm94.198 23.143c-20.562-1.362-42.2-2.32-65.005-2.763L540.5 556.85c22.825-.42 44.5-1.325 65.087-2.663l1.62-134.017zm0 0zm-346.874 110.7l1.4-87.846c-52.775 13.533-82.006 30.13-82.006 44.106 0 13.854 28.727 30.27 80.606 43.74zm0 0zm462-96.954c-22.38-4.107-47.405-7.685-75.11-10.474l-1.565 127.5c27.63-2.723 52.617-6.242 74.978-10.314l1.697-106.723zm0 0zm-340.327-10.773c-29.686 2.9-56.417 6.684-80.08 11.1l-1.66 105.47c23.644 4.464 50.412 8.308 80.16 11.252l1.582-127.81zm0 0zm464.274 63.988c0-14.175-29.948-31.013-84.044-44.65l-1.423 89.673c55.02-13.71 85.468-30.733 85.468-45.023zm0 0zm-344.15-69.932c-28.31.202-55 1.18-80.062 2.78L420.4 554.19c25.044 1.644 51.732 2.622 80.038 2.86l1.705-139.86zm0 0z"/></svg>