<svg xmlns="http://www.w3.org/2000/svg" height="512" viewBox="0 0 1038 1024"><path d="M993.965 501.455c25.108-8.902 43.216-32.477 43.216-60.653 0-35.804-29.02-64.824-64.824-64.824H64.824C29.02 375.978 0 404.998 0 440.802c0 35.07 27.896 63.44 62.685 64.608h-19.47v475.375H0V1024h1037.18v-43.216h-43.216v-479.33zm-821.1 479.33H86.432V505.626h86.432v475.158zm129.648 0H216.08V505.626h86.432v475.158zm129.648 0h-86.432V505.626h86.432v475.158zm129.648 0h-86.432V505.626h86.432v475.158zm129.648 0h-86.432V505.626h86.432v475.158zm129.648 0H734.67V505.626H821.1v475.158zm129.648 0h-86.432V505.626h86.432v475.158zM64.824 462.4a21.62 21.62 0 0 1-21.608-21.608 21.62 21.62 0 0 1 21.608-21.608h907.533a21.62 21.62 0 0 1 21.608 21.608 21.62 21.62 0 0 1-21.608 21.608H64.824zm646.293-206.723c10.977 30.057-33.168 55.878-33.557 56.094-10.372 5.877-14.045 19.058-8.168 29.452 3.976 7.023 11.28 10.977 18.82 10.977 3.61 0 7.26-.908 10.61-2.787 28.48-16.12 71.652-57.1 52.788-108.753-6.828-18.13-18.518-37.468-29.82-56.202-16.163-26.75-34.42-57.023-33.73-77.464 5.164-26.49 17.956-50.563 37.014-69.707 8.45-8.45 8.405-22.127-.043-30.554-8.47-8.427-22.127-8.384-30.554.065-25.52 25.627-42.524 58.017-49.136 93.627-.15.8-.26 1.62-.324 2.42-2.355 34.076 19.058 69.578 39.802 103.934 10.76 17.827 20.938 34.68 26.297 48.9zm-171.545 0c10.977 30.057-33.2 55.878-33.557 56.116-10.372 5.877-14.024 19.058-8.146 29.452 3.976 7.023 11.28 10.955 18.82 10.955 3.61 0 7.26-.908 10.63-2.81 28.458-16.098 71.63-57.088 52.788-108.753-6.828-18.107-18.496-37.447-29.797-56.16-16.184-26.772-34.465-57.067-33.752-77.508 5.164-26.49 17.935-50.563 37.014-69.686C562 28.847 562 15.17 553.53 6.742c-8.47-8.45-22.148-8.427-30.554.043-25.605 25.65-42.61 58.04-49.18 93.65-.15.8-.26 1.6-.303 2.42-2.377 34.097 19.058 69.62 39.802 103.977 10.74 17.827 20.916 34.66 26.275 48.856zm-170.92 0c10.977 30.057-33.168 55.878-33.557 56.116-10.393 5.856-14.045 19.058-8.168 29.43 3.976 7.023 11.28 10.977 18.82 10.977 3.61 0 7.26-.908 10.61-2.787 28.48-16.12 71.652-57.1 52.788-108.753-6.828-18.13-18.518-37.468-29.797-56.18-16.163-26.772-34.443-57.045-33.73-77.486a134.91 134.91 0 0 1 37.014-69.686c8.427-8.45 8.405-22.127-.043-30.575-8.47-8.427-22.127-8.405-30.575.043-25.562 25.65-42.546 58.04-49.136 93.65-.15.8-.26 1.62-.303 2.42-2.377 34.076 19.058 69.6 39.78 103.956 10.76 17.827 20.938 34.68 26.297 48.877z"/></svg>