<svg xmlns="http://www.w3.org/2000/svg" width="25" height="225"><style><![CDATA[.B{fill:#c0b283}]]></style><svg width="25" height="25"><path d="M23.95 22.207h-1.083L13.19 7.094l2.098-3.282a.72.72 0 1 0-1.215-.777l-1.01 1.582V1.742a.724.724 0 0 0-1.445 0v2.875l-1.013-1.582a.722.722 0 1 0-1.214.777l2.097 3.282-9.672 15.113H.723a.724.724 0 0 0 0 1.445H23.95a.724.724 0 0 0 0-1.445zm-6.454 0l-4.437-6.93v6.93h-1.446v-6.93l-4.437 6.93H5.46l5.836-9.12a1.236 1.236 0 0 1 2.078 0l5.836 9.12zm0 0" class="B"/></svg><svg width="25" height="25" y="25"><path d="M12.137 4.008L21.9 9.605l2.156.008-4.76-7.722h-2.168V0h-2.52v1.895L12.25 1.9l-6.918.016L.586 9.793l2.53-.016zm10.133 7.28L12.227 5.707 2.64 11.352v10.64H1.152v2.664h22.493v-2.664H22.27zM7.273 18.473H4.34v-4.946h2.926l.004 4.946zm7.024 3.68h-4.07V13.72h4.05v8.433zm6.265-3.68h-2.945v-4.946h2.93v4.946zm0 0" class="B"/></svg><svg width="25" height="25" y="50"><path d="M12.25 0C5.496 0 0 5.496 0 12.25S5.496 24.5 12.25 24.5 24.5 19.004 24.5 12.25 19.004 0 12.25 0zm3.047 12.684H13.3v7.1h-2.95v-7.1H8.946v-2.512h1.407V8.547c0-1.16.55-2.98 2.98-2.98l2.188.01v2.434h-1.6c-.258 0-.63.133-.63.683v1.48h2.25zm0 0" class="B"/></svg><svg width="25" height="25" y="75"><path d="M9.73 4.164c-.5 0-.937.176-1.304.527s-.55.778-.55 1.282a1.69 1.69 0 0 0 .55 1.277c.368.352.805.527 1.305.527s.93-.175 1.278-.527c.355-.352.527-.777.527-1.277a1.73 1.73 0 0 0-.527-1.282 1.733 1.733 0 0 0-1.278-.527zm9.286 3.566c-.036-.17-.172-.37-.403-.605L7.875 0 6.867 1.457c-.23.332-.183.617.153.852.332.23.62.183.855-.15l.598-.855 8.734 5.77-7.176 1.308c-.234.03-.437.156-.6.375s-.22.44-.153.676l1.555 6.074-5.02 7.523c-.164.27-.207.555-.125.852a.984.984 0 0 0 .528.652c.27.137.547.168.828.106.29-.07.512-.235.68-.508l5.27-7.973.25 1.102-.806 5.968c-.03.27.036.528.204.778s.402.402.7.453a1.05 1.05 0 0 0 .828-.2c.254-.183.398-.4.43-.675l.8-6.125a1.98 1.98 0 0 0 0-.652l-1.804-7.176 4.664-.8a1.08 1.08 0 0 0 .578-.402.93.93 0 0 0 .18-.7zm0 0" class="B"/></svg><svg width="25" height="25" y="100"><path d="M12.336 0A12.34 12.34 0 0 0 0 12.336a12.34 12.34 0 0 0 12.336 12.336 12.35 12.35 0 0 0 12.336-12.336A12.35 12.35 0 0 0 12.336 0zm2.57 19.117l-1.52.57s-.82.2-1.32.2c-.77 0-1.37-.184-1.793-.563a1.82 1.82 0 0 1-.636-1.43c0-.222.015-.453.047-.687l.152-.793.793-2.805a14.21 14.21 0 0 0 .18-.761 3.17 3.17 0 0 0 .07-.664c0-.356-.074-.606-.22-.746-.148-.145-.433-.21-.85-.21a2 2 0 0 0-.63.101l-.554.188.2-.868 1.5-.543a4.553 4.553 0 0 1 1.359-.222c.76 0 1.35.18 1.765.55s.62.848.62 1.438c0 .12-.01.336-.043.645a4.12 4.12 0 0 1-.156.843l-.79 2.8c-.07.223-.125.48-.18.77a4.07 4.07 0 0 0-.07.652c0 .37.082.625.25.762s.453.203.86.203a2.5 2.5 0 0 0 .656-.102 3.56 3.56 0 0 0 .527-.18l-.215.864zm-.14-11.36a1.89 1.89 0 0 1-1.336.516 1.91 1.91 0 0 1-1.336-.515 1.634 1.634 0 0 1-.555-1.242c0-.49.188-.907.555-1.25.36-.344.844-.532 1.336-.52a1.87 1.87 0 0 1 1.336.52c.363.343.55.76.55 1.25s-.187.902-.55 1.242zm0 0" class="B"/></svg><svg width="25" height="25" y="125"><path d="M12.336 0c-4.93 0-8.934 4.008-8.934 8.934 0 6.117 7.996 15.1 8.336 15.472a.803.803 0 0 0 1.196 0c.34-.383 8.336-9.355 8.336-15.472C21.27 4.008 17.262 0 12.336 0zm0 13.43A4.5 4.5 0 0 1 7.84 8.934a4.499 4.499 0 0 1 4.496-4.493 4.495 4.495 0 0 1 0 8.989zm0 0" class="B"/></svg><svg width="25" height="25" y="150"><path d="M12.73 3.707a8.17 8.17 0 1 0 0 16.34 8.168 8.168 0 1 0 0-16.34zm0 14.367a6.207 6.207 0 0 1-6.199-6.199 6.21 6.21 0 0 1 6.2-6.2 6.21 6.21 0 0 1 6.199 6.2 6.21 6.21 0 0 1-6.2 6.2zm0-10.738a4.545 4.545 0 0 0-4.539 4.539 4.536 4.536 0 1 0 4.54-4.54zm11.426 5.223V2.633a.218.218 0 0 0-.152-.211.222.222 0 0 0-.25.078 9.388 9.388 0 0 0-1.906 5.676v3.633c0 .414.336.754.75.754h.316l-.516 8.203c0 .824.508 1.496 1.137 1.496s1.137-.672 1.137-1.496c0-.524-.207-5.004-.516-8.207zm-20.86-1.965a2.174 2.174 0 0 0 1.052-1.86l-.313-5.1a.368.368 0 0 0-.734.04l.2 4.082c0 .23-.184.418-.414.418a.415.415 0 0 1-.414-.418L2.57 3.684a.397.397 0 0 0-.793 0l-.105 4.082c0 .23-.184.418-.414.418a.415.415 0 0 1-.414-.418l.203-4.082A.366.366 0 0 0 .68 3.3a.365.365 0 0 0-.368.344L0 8.735a2.18 2.18 0 0 0 1.047 1.859c.4.246.64.7.586 1.187l-.594 8.985c0 .824.508 1.496 1.133 1.496S3.31 21.6 3.31 20.766c0-.57-.243-5.8-.598-8.985a1.23 1.23 0 0 1 .586-1.187zm0 0" class="B"/></svg><svg width="25" height="25" y="175"><path d="M4.813 19.52c-3.344-4.934-.985-8.786-.985-8.786-.547-.164-2.3.99-2.3.99C2.512 8.11 7.934 5.04 7.934 5.04c-.602-.22-2.3.215-2.3.215 4.437-4.27 9.86-2.68 9.86-2.68C15.656 1.64 18.343 0 18.343 0c-.273.273-.386 1.754-.386 1.754.277-.496 1.152-.984 1.152-.984-.492 1.144 0 3.61 0 3.61 1.426 1.426 3.012 6.355 3.012 6.355l.602.88c.77 1.093.488 2.82-.27 3.226-2.848 1.54-3.125-1.254-3.125-1.254-2.355-.277-4.1-2.906-4.1-2.906-3.175 1.644-1.405 6.277-.034 8.058 1.76 2.282.472 5.973.472 5.973s-7.547-.316-10.844-5.188zm0 0" class="B"/></svg><svg width="25" height="25" y="200"><path d="M23.285 10.402l.035.004H6.812l5.192-5.2a1.35 1.35 0 0 0 .394-.957c0-.363-.14-.703-.394-.957l-.81-.81a1.333 1.333 0 0 0-.949-.394c-.363 0-.703.14-.957.394L.39 11.38a1.34 1.34 0 0 0-.391.957 1.35 1.35 0 0 0 .39.957l8.9 8.895a1.34 1.34 0 0 0 .956.39c.36 0 .695-.137.95-.4l.808-.805c.254-.254.394-.594.394-.957s-.14-.68-.394-.934l-5.25-5.23H23.3a1.4 1.4 0 0 0 1.37-1.383v-1.145c0-.742-.644-1.332-1.386-1.332zm0 0" class="B"/></svg></svg>