<svg xmlns="http://www.w3.org/2000/svg" viewBox="0 0 23.625 23.625"><path d="M11.812 0C5.29 0 0 5.29 0 11.812s5.29 11.813 11.812 11.813 11.813-5.3 11.813-11.813S18.335 0 11.812 0zm2.46 18.307c-.608.24-1.092.422-1.455.548s-.783.19-1.262.19c-.736 0-1.31-.18-1.717-.54s-.61-.814-.61-1.367c0-.215.015-.435.045-.66a8.23 8.23 0 0 1 .147-.759l.76-2.688c.067-.258.125-.503.17-.73a3.24 3.24 0 0 0 .068-.633c0-.342-.07-.582-.212-.717s-.412-.2-.813-.2c-.196 0-.398.03-.605.1s-.383.12-.53.176l.2-.828c.498-.203.975-.377 1.43-.52s.885-.218 1.3-.218c.73 0 1.295.178 1.692.53s.594.812.594 1.376c0 .117-.014.323-.04.617a4.13 4.13 0 0 1-.152.811l-.757 2.68c-.062.215-.117.46-.167.736s-.073.485-.073.626c0 .356.08.6.24.728s.435.194.827.194a2.4 2.4 0 0 0 .626-.097 3.56 3.56 0 0 0 .506-.17l-.203.827zM14.137 7.43c-.353.328-.778.492-1.275.492s-.924-.164-1.28-.492a1.57 1.57 0 0 1-.533-1.193c0-.465.18-.865.533-1.196a1.81 1.81 0 0 1 1.28-.497 1.79 1.79 0 0 1 1.275.497c.353.33.53.73.53 1.196s-.177.865-.53 1.193z" fill="#c0b283"/></svg>