<svg xmlns="http://www.w3.org/2000/svg" height="512" viewBox="0 0 1024 1024"><path d="M504.39 1024.72c-68.066 0-134.095-13.33-196.26-39.627-60.038-25.393-113.95-61.74-160.25-108.04-46.288-46.294-82.636-100.21-108.03-160.25C13.56 654.638.23 588.613.23 520.566S13.56 386.504 39.85 324.344c25.393-60.032 61.74-113.944 108.034-160.238S248.09 81.465 308.13 56.073c62.165-26.297 128.2-39.627 196.26-39.627 68.046 0 134.07 13.33 196.23 39.627 60.032 25.393 113.944 61.74 160.238 108.033 46.288 46.294 82.635 100.206 108.023 160.238 26.29 62.16 39.622 128.174 39.622 196.22s-13.33 134.072-39.622 196.237c-25.388 60.038-61.736 113.956-108.024 160.25-46.294 46.298-100.205 82.646-160.238 108.04-62.158 26.297-128.184 39.627-196.23 39.627zm0-974.4C245.07 50.317 34.1 261.27 34.1 520.565c0 259.314 210.968 470.282 470.288 470.282 259.3 0 470.24-210.968 470.24-470.282 0-259.296-210.952-470.248-470.24-470.248zm171.23 654.23h-52.782V513.96c0-36.017-5.027-61.78-15.08-77.288-10.056-15.503-26.573-23.26-49.55-23.26-19.39 0-35.995 10.106-49.817 30.31-13.825 20.216-20.735 44.12-20.735 71.736V704.54h-52.78V507.957c0-63.03-21.81-94.543-65.434-94.543-20.107 0-36.755 9.604-49.954 28.817-13.194 19.207-19.79 43.718-19.79 73.533v188.784h-52.778V372.594h52.777v52.523h1.073c21.188-40.217 52.153-60.325 92.906-60.325 19.93 0 37.516 6.104 52.782 18.31 15.254 12.206 25.85 28.712 31.773 49.52 22.085-45.22 55.113-67.828 99.096-67.828 65.53 0 98.293 45.02 98.293 135.06l.001 204.696zm116.48-300.055H749.96l18.088-17.68c11.805-11.693 19.644-21.143 23.993-28.916 4.5-8.06 6.798-16.44 6.798-24.908 0-11.56-3.794-20.966-11.28-27.957-7.376-6.89-17.378-10.38-29.726-10.38-13.915 0-26.315 4.112-36.844 12.228-1.39 1.07-2.2 2.718-2.2 4.47v15.602c0 2.25 1.334 4.283 3.396 5.182.728.31 1.49.463 2.25.463a5.65 5.65 0 0 0 3.858-1.522c8.82-8.258 17.692-12.277 27.108-12.277 5.783 0 10.122 1.334 12.884 3.97 2.73 2.597 4.053 6.456 4.053 11.792 0 5.094-1.367 9.923-4.174 14.764-3.033 5.22-9.3 12.603-18.634 21.93l-35.278 35.2c-1.06 1.058-1.66 2.497-1.66 3.997v13.33a5.65 5.65 0 0 0 5.646 5.646h73.858a5.65 5.65 0 0 0 5.646-5.646v-13.645a5.65 5.65 0 0 0-5.645-5.645zm0 0"/></svg>