<svg xmlns="http://www.w3.org/2000/svg" height="512" viewBox="0 0 1024 1024"><path d="M202.07 417.11c67.584 0 122.197-53.93 122.197-120.832S269.653 175.445 202.07 175.445 79.872 229.376 79.872 296.277 134.485 417.11 202.07 417.11zm307.883 116.053c78.507 0 141.995-62.805 141.995-139.264S588.46 254.635 509.952 254.635c-77.824-.683-141.312 61.44-141.312 138.58s63.488 139.947 141.312 139.947zM818.517 417.11c67.584 0 122.197-53.93 122.197-120.832S886.1 175.445 818.517 175.445 696.32 229.376 696.32 296.277c.683 66.9 55.296 120.832 122.197 120.832zm12.288 53.248H806.23c-78.507 0-145.408 49.152-171.35 118.784 53.248 25.94 95.573 68.95 120.832 122.197H983.04a30.59 30.59 0 0 0 30.72-30.72v-27.99c0-100.352-81.92-182.272-182.955-182.272zM384.34 586.41c-26.624-67.584-92.843-116.053-169.984-116.053H189.78c-101.035 0-182.955 81.92-182.955 182.272v27.99a30.59 30.59 0 0 0 30.72 30.72h220.5c25.26-55.296 70.315-99.67 126.293-124.928zm147.456 8.192h-42.325c-113.323 0-205.483 92.16-205.483 205.483v36.864a36.71 36.71 0 0 0 36.864 36.864H701.78a36.71 36.71 0 0 0 36.864-36.864v-36.864c-1.365-113.323-93.525-205.483-206.848-205.483z"/></svg>