<svg xmlns="http://www.w3.org/2000/svg" height="512" viewBox="0 0 1024 1024"><path d="M818.94 65.52H205.134c-40.35 0-73.118 32.9-73.118 73.397v765.958c0 40.417 32.77 73.326 73.118 73.326h613.8c40.277 0 73.046-32.908 73.046-73.326V138.917c-.001-40.487-32.77-73.397-73.048-73.397zm37.12 839.354c0 20.63-16.63 37.4-37.12 37.4H205.134c-20.493 0-37.192-16.772-37.192-37.4V138.917c0-20.664 16.7-37.47 37.192-37.47h613.8c20.5 0 37.12 16.805 37.12 37.47v765.956zm-596.1-677.64a41.222 41.222 0 1 0 82.444 0 41.222 41.222 0 1 0-82.444 0zm442.346 0a41.222 41.222 0 1 0 82.444 0 41.222 41.222 0 1 0-82.444 0zM471.5 822.894a41.224 41.224 0 1 0 82.447 0 41.224 41.224 0 1 0-82.447 0zM451.038 468.43a59.061 59.061 0 1 0 118.123 0 59.061 59.061 0 1 0-118.123 0zM510.1 281.15c-109.07 0-197.486 88.417-197.486 197.486S401.03 676.12 510.1 676.12s197.486-88.417 197.486-197.486S619.17 281.15 510.1 281.15zm-.001 354.38c-86.648 0-156.894-70.243-156.894-156.893S423.45 321.74 510.098 321.74s156.896 70.245 156.896 156.896S596.752 635.53 510.098 635.53z"/></svg>