<svg xmlns="http://www.w3.org/2000/svg" height="512" viewBox="0 0 1024 1024"><path d="M876.438 300.613H504.543l164.976-157.52c14.913-14.913-7.457-37.283-23.3-23.3L466.33 292.224l-87.615-112.78c-13.05-16.778-35.42 6.524-23.3 23.3l76.43 97.867H147.56c-30.758 0-54.992 25.166-54.992 54.992v469.762c0 30.758 25.166 54.992 54.992 54.992h10.253v31.69c0 20.505 32.622 21.438 32.622 0v-31.69H832.63v31.69c0 20.505 32.622 21.438 32.622 0v-31.69h10.253c30.758 0 54.992-25.166 54.992-54.992V355.604c.932-30.758-24.234-54.992-54.06-54.992zm22.37 524.754c0 12.117-10.253 22.37-22.37 22.37H147.562c-12.117 0-22.37-10.253-22.37-22.37V355.605c0-12.117 10.253-22.37 22.37-22.37h727.945c12.117 0 22.37 10.253 22.37 22.37v469.762zM681.636 385.43H233.312c-30.758 0-54.992 25.166-54.992 54.992V754.53c0 30.758 25.166 54.992 54.992 54.992h448.324c30.758 0 54.992-25.166 54.992-54.992V441.356c0-30.758-24.234-55.924-54.992-55.924zm22.37 369.1c0 12.117-10.253 22.37-22.37 22.37H233.31c-12.117 0-22.37-10.253-22.37-22.37V441.356c0-12.117 10.253-22.37 22.37-22.37h448.324c12.117 0 22.37 10.253 22.37 22.37V754.53zm93.208-303.854c0 17.503 14.188 31.69 31.69 31.69s31.69-14.188 31.69-31.69-14.188-31.69-31.69-31.69-31.69 14.188-31.69 31.69zm0 97.867c0 17.503 14.188 31.69 31.69 31.69s31.69-14.188 31.69-31.69-14.188-31.69-31.69-31.69-31.69 14.188-31.69 31.69zM353.55 719.11c-21.438 0-47.535 4.66-68.042-.932-29.826-8.39-21.438-53.127-21.438-76.43 0-13.05-19.573-13.05-19.573 0 0 28.894-7.457 68.042 20.505 87.615 23.3 16.778 62.448 9.32 88.546 9.32 12.117 0 12.117-19.573 0-19.573z"/></svg>