<svg xmlns="http://www.w3.org/2000/svg" height="512" viewBox="0 0 1280 1024"><path d="M15.36 319.616c-20.48 20.053-20.48 52.907 0 72.96 20.053 20.053 52.907 20.053 73.387 0 303.787-300.8 798.72-300.8 1102.507 0 20.48 20.053 53.333 20.053 73.387 0 20.48-20.053 20.48-52.907 0-72.96-344.32-340.907-904.96-340.907-1249.28 0zM162.133 465.11c-20.053 20.48-20.053 52.907 0 72.96 20.48 20.053 53.333 20.053 73.387 0 223.147-220.587 585.813-220.587 808.96 0 20.053 20.053 52.907 20.053 73.387 0 20.053-20.053 20.053-52.48 0-72.96-263.68-260.693-692.053-260.693-955.733 0zm147.2 145.92c-20.48 20.053-20.48 52.48 0 72.533 20.053 20.053 52.907 20.053 73.387 0 141.653-140.373 372.907-140.373 514.56 0 20.48 20.053 53.333 20.053 73.387 0 20.48-20.053 20.48-52.48 0-72.533-182.187-180.907-479.147-180.907-661.333 0zM450.56 779.99l182.187 180.053L835.84 758.656c-96.853-74.24-265.387-97.28-385.28 21.333z"/></svg>