<svg xmlns="http://www.w3.org/2000/svg" height="512" viewBox="0 0 1152 1024"><path d="M1120 896H864.032V160H1120c17.696 0 32 14.304 32 32v672c0 17.664-14.304 32-32 32zM992.032 768h32v-32h-32v32zm0-64h32v-32h-32v32zm0-64h32v-32h-32v32zm-64 128H960v-32h-31.968v32zm0-64H960v-32h-31.968v32zm0-64H960v-32h-31.968v32zm160-352h-160v96h160v-96zm0 320h-32v32h32v-32zm0 64h-32v32h32v-32zm0 64h-32v32h32v-32zM0 864V192c0-17.696 14.336-32 32.032-32h800v736h-800C14.336 896 0 881.664 0 864zm769.248-303.712c17.696 0 32-14.336 32-32 0-17.696-14.304-32-32-32-17.664 0-32 14.304-32 32 0 17.664 14.336 32 32 32zM128 736c0 17.664 14.336 32 32.032 32H672c17.696 0 32-14.336 32-32V320c0-17.696-14.304-32-32-32H160.032C142.336 288 128 302.304 128 320v416z"/></svg>