<svg width="0" height="0" class="hidden">
  <symbol xmlns="http://www.w3.org/2000/svg" id="CampingTent">
    <path fill="#c0b283" d="M497 460.88h-22.457l-200.74-313.686 43.547-68.05c4.465-6.978 2.43-16.254-4.55-20.72s-16.252-2.43-20.72 4.55L271.094 95.77V36.12c0-8.284-6.716-15-15-15s-15 6.716-15 15v59.648l-20.986-32.795c-4.467-6.98-13.743-9.013-20.72-4.55s-9.015 13.742-4.55 20.72l43.547 68.05L37.647 460.88H15c-8.284 0-15 6.716-15 15s6.716 15 15 15h482c8.284 0 15-6.716 15-15s-6.716-15-15-15zm-133.955 0L271 317.045V460.88h-30V317.045L148.955 460.88h-35.617L234.46 271.607a25.46 25.46 0 0 1 21.539-11.788c8.763 0 16.814 4.406 21.538 11.787L398.66 460.88h-35.616z"></path>
  </symbol>
  <symbol xmlns="http://www.w3.org/2000/svg" viewBox="0 0 16.16 16.16" fill="#c0b283" id="Cottage">
    <path d="M7.95 2.625l6.4 3.667 1.415.006-3.118-5.06-1.423.002V0h-1.65v1.242l-1.55.01-4.532.008L.386 6.416l1.655-.01zm6.638 4.768l-6.58-3.656-6.278 3.7v6.968H.756v1.745h14.73v-1.745h-.898V7.393zm-9.825 4.705h-1.92V8.86H4.76l.001 3.238zm4.6 2.413H6.7V8.986h2.653v5.525zm4.105-2.413H11.54V8.86h1.918v3.238z"></path>
  </symbol>
  <symbol xmlns="http://www.w3.org/2000/svg" viewBox="0 0 512 512" fill="#c0b283" id="dinner">
    <path d="M264.18 76.9c-93.646 0-169.56 75.915-169.56 169.56s75.915 169.56 169.56 169.56 169.56-75.915 169.56-169.56S357.827 76.9 264.18 76.9zm-.001 298.22c-70.942 0-128.658-57.716-128.658-128.658s57.716-128.658 128.658-128.658 128.66 57.716 128.66 128.656-57.715 128.66-128.658 128.66zm.001-222.83c-51.926 0-94.17 42.245-94.17 94.17s42.245 94.17 94.17 94.17 94.17-42.245 94.17-94.17-42.244-94.17-94.17-94.17zm237.135 108.387V54.64c0-1.988-1.27-3.755-3.155-4.4s-3.963.007-5.166 1.6a195.013 195.013 0 0 0-39.622 117.83v75.378c0 8.645 7.008 15.654 15.654 15.654h6.526c-6.433 66.443-10.684 159.37-10.684 170.25 0 17.142 10.55 31.038 23.566 31.038S512 448.095 512 430.954c0-10.882-4.25-103.824-10.685-170.267zM68.417 219.843c13.042-7.9 21.76-22.224 21.76-38.586l-6.46-105.62a7.632 7.632 0 0 0-7.618-7.165c-4.363 0-7.84 3.655-7.622 8l4.2 84.7a8.62 8.62 0 0 1-8.62 8.62 8.62 8.62 0 0 1-8.62-8.62l-2.1-84.674a8.25 8.25 0 0 0-16.494 0l-2.1 84.674a8.62 8.62 0 0 1-8.62 8.62 8.62 8.62 0 0 1-8.62-8.62l4.2-84.7c.216-4.357-3.262-8-7.622-8a7.63 7.63 0 0 0-7.617 7.165L0 181.258c0 16.362 8.716 30.685 21.76 38.586a25.5 25.5 0 0 1 12.126 24.617c-7.363 66.358-12.363 174.693-12.363 186.494 0 17.142 10.55 31.038 23.566 31.038s23.566-13.897 23.566-31.038c0-11.8-5-120.136-12.363-186.494a25.51 25.51 0 0 1 12.126-24.618z"></path>
  </symbol>
  <symbol xmlns="http://www.w3.org/2000/svg" id="FacebookLogo">
    <path fill="#c0b283" d="M24.826 0C11.137 0 0 11.137 0 24.826s11.137 24.826 24.826 24.826 24.826-11.138 24.826-24.826S38.516 0 24.826 0zM31 25.7h-4.04v14.396h-5.985V25.7H18.13v-5.088h2.845v-3.29c0-2.357 1.12-6.04 6.04-6.04l4.435.017v4.94h-3.22c-.524 0-1.27.262-1.27 1.386v3h4.56L31 25.7z"></path>
  </symbol>
  <symbol xmlns="http://www.w3.org/2000/svg" viewBox="0 0 491.667 491.667" fill="#c0b283" id="GolfPlayer">
    <path d="M193.908 83c-10 0-18.667 3.5-26 10.5s-11 15.5-11 25.5 3.667 18.5 11 25.5 16 10.5 26 10.5 18.5-3.5 25.5-10.5 10.5-15.5 10.5-25.5-3.5-18.5-10.5-25.5-15.5-10.5-25.5-10.5zM378.9 154c-.674-3.333-3.34-7.333-8-12L156.9 0l-20 29c-4.667 6.667-3.667 12.334 3 17s12.333 3.667 17-3l12-17 174 115-143 26c-4.667.667-8.667 3.167-12 7.5s-4.333 8.833-3 13.5l31 121-100 150c-3.333 5.334-4.167 11-2.5 17s5.167 10.334 10.5 13 10.833 3.334 16.5 2 10.167-4.666 13.5-10l105-159 5 22-16 119c-.666 5.334.668 10.5 4 15.5s8 8 14 9 11.5-.334 16.5-4 7.832-8.166 8.5-13.5l16-122c.666-4 .666-8.332 0-13l-36-143 93-16c4.666-1.333 8.5-4 11.5-8s4.166-8.667 3.5-14z"></path>
  </symbol>
  <symbol xmlns="http://www.w3.org/2000/svg" id="horseHead">
    <path fill="#c0b283" d="M38.228 155.075c-26.554-39.188-7.814-69.794-7.814-69.794-4.354-1.29-18.28 7.837-18.28 7.837 7.832-28.702 50.9-53.087 50.9-53.087-4.782-1.75-18.273 1.726-18.273 1.726 35.243-33.92 78.326-21.306 78.326-21.306C124.398 13.048 145.73 0 145.73 0c-2.182 2.16-3.062 13.926-3.062 13.926 2.176-3.922 9.15-7.837 9.15-7.837-3.913 9.126 0 28.703 0 28.703 11.312 11.322 23.927 50.5 23.927 50.5l4.8 6.96c6.094 8.715 3.854 22.417-2.182 25.667-22.62 12.212-24.808-10-24.808-10-18.713-2.176-32.64-23.07-32.64-23.07-25.23 13.05-11.178 49.87-.284 64.007 13.997 18.123 3.748 47.44 3.748 47.44s-59.932-2.482-86.152-41.2z"></path>
  </symbol>
  <symbol xmlns="http://www.w3.org/2000/svg" viewBox="0 0 23.625 23.625" id="Info">
    <path d="M11.812 0C5.29 0 0 5.29 0 11.812s5.29 11.813 11.812 11.813 11.813-5.3 11.813-11.813S18.335 0 11.812 0zm2.46 18.307c-.608.24-1.092.422-1.455.548s-.783.19-1.262.19c-.736 0-1.31-.18-1.717-.54s-.61-.814-.61-1.367c0-.215.015-.435.045-.66a8.23 8.23 0 0 1 .147-.759l.76-2.688c.067-.258.125-.503.17-.73a3.24 3.24 0 0 0 .068-.633c0-.342-.07-.582-.212-.717s-.412-.2-.813-.2c-.196 0-.398.03-.605.1s-.383.12-.53.176l.2-.828c.498-.203.975-.377 1.43-.52s.885-.218 1.3-.218c.73 0 1.295.178 1.692.53s.594.812.594 1.376c0 .117-.014.323-.04.617a4.13 4.13 0 0 1-.152.811l-.757 2.68c-.062.215-.117.46-.167.736s-.073.485-.073.626c0 .356.08.6.24.728s.435.194.827.194a2.4 2.4 0 0 0 .626-.097 3.56 3.56 0 0 0 .506-.17l-.203.827zM14.137 7.43c-.353.328-.778.492-1.275.492s-.924-.164-1.28-.492a1.57 1.57 0 0 1-.533-1.193c0-.465.18-.865.533-1.196a1.81 1.81 0 0 1 1.28-.497 1.79 1.79 0 0 1 1.275.497c.353.33.53.73.53 1.196s-.177.865-.53 1.193z"
      fill="#c0b283"></path>
  </symbol>
  <symbol xmlns="http://www.w3.org/2000/svg" viewBox="0 0 492 492" id="left-arrow">
    <path d="M464.344 207.418l.768.168H135.888l103.496-103.724c5.068-5.064 7.848-11.924 7.848-19.124s-2.78-14.012-7.848-19.088L223.28 49.538a26.7 26.7 0 0 0-19.008-7.864c-7.2 0-13.952 2.78-19.016 7.844L7.844 226.914C2.76 231.998-.02 238.77 0 245.974c-.02 7.244 2.76 14.02 7.844 19.096l177.412 177.412c5.064 5.06 11.812 7.844 19.016 7.844 7.196 0 13.944-2.788 19.008-7.844l16.104-16.112c5.068-5.056 7.848-11.808 7.848-19.008s-2.78-13.592-7.848-18.652L134.72 284.406h329.992c14.828 0 27.288-12.78 27.288-27.6v-22.788c0-14.82-12.828-26.6-27.656-26.6z"
      fill="#c0b283"></path>
  </symbol>
  <symbol xmlns="http://www.w3.org/2000/svg" viewBox="0 0 512 512" id="Map">
    <path fill="#c0b283" d="M256 0C153.755 0 70.573 83.182 70.573 185.426c0 126.888 165.94 313.167 173.004 321.035 6.636 7.39 18.222 7.378 24.846 0 7.065-7.868 173.004-194.147 173.004-321.035C441.425 83.182 358.244 0 256 0zm0 278.72c-51.442 0-93.292-41.85-93.292-93.293S204.56 92.134 256 92.134s93.29 41.85 93.29 93.293S307.44 278.72 256 278.72z"></path>
  </symbol>
</svg>